<svg version="1.2" xmlns="http://www.w3.org/2000/svg" viewBox="0 0 48 48" width="48" height="48">
	<title>logo-svg</title>
	<style>
		.s0 { fill: #000000 } 
	</style>
	<g id="Layer">
		<path id="Layer" fill-rule="evenodd" class="s0" d="m10.4 12.9q0-1.9 0.2-3.7c0.2-2.3 0.6-4.3 1.8-5.8 1.5-2.1 4.1-3.4 8.6-3.4 4.5 0 7.1 1.3 8.6 3.4 1.2 1.5 1.6 3.5 1.8 5.8q0.1 1.8 0.1 3.7c0 9-7.4 12.8-10.5 12.8-3.2 0-10.6-3.8-10.6-12.8zm7.1-8.2c0.4 0.8 0.5 1.2 0.8 2 2-0.6 3.4-0.6 5.4 0 0.3-0.8 0.4-1.2 0.7-2-2.4-0.7-4.4-0.7-6.9 0zm-5.5 8.2c0 4.4 1.9 7.1 3.6 8.7 2.1 1.9 4.4 2.6 5.4 2.6 1 0 3.3-0.7 5.4-2.6 1.6-1.6 3.6-4.3 3.6-8.7q0-1 0-2c-0.2 0.3-0.7 1.3-1.5 1.4-0.9 0.1-2.4-3.3-7.5-3.3-5.1 0-6.6 3.4-7.5 3.3-0.8-0.1-1.4-1.1-1.5-1.4q0 1 0 2z"/>
		<path id="Layer" class="s0" d="m30.4 27.6q0.5-0.5 1-0.9c-1.4-0.8-2.9-1.6-3.8-2.1-0.3-0.1-0.6-0.1-0.8 0.1q-1.8 1.4-3.9 1.8c-0.2 0.1-0.4 0.3-0.5 0.5l-1.4 3.7-1.4-3.7c-0.1-0.2-0.3-0.4-0.5-0.5q-2.1-0.4-3.9-1.8c-0.2-0.2-0.5-0.2-0.8-0.1-2.2 1.2-7.6 4.1-9.1 5.1-2.6 1.7-3.7 8-3.9 9.2q0 0.2 0 0.4c0.1 0.2 2.5 6.3 19.6 6.3q1.2 0 2.2 0c0.1-0.8 0.4-1.6 1-2.2l4.1-4.1c-1.8-3.9-1.1-8.6 2.1-11.7z"/>
		<path id="Layer" fill-rule="evenodd" class="s0" d="m46.5 34.9c0 2.4-1 4.6-2.6 6.2-1.7 1.7-3.9 2.6-6.3 2.6-1.5 0-3-0.4-4.3-1.1l-0.3-0.2-4.9 4.9c-0.4 0.4-0.9 0.6-1.4 0.6-0.6 0-1.1-0.2-1.5-0.6-0.8-0.8-0.8-2.1 0-2.9l4.9-4.8-0.2-0.3c-1.9-3.5-1.3-7.9 1.5-10.7 1.6-1.6 3.9-2.6 6.2-2.6 2.4 0 4.6 1 6.3 2.6 1.6 1.7 2.6 3.9 2.6 6.3zm-3.1 0c0-1.6-0.6-3-1.7-4.1-1.1-1.1-2.5-1.7-4.1-1.7-1.5 0-3 0.6-4.1 1.7-2.2 2.3-2.2 5.9 0 8.2 1.1 1.1 2.6 1.7 4.1 1.7 1.6 0 3-0.6 4.1-1.7 1.1-1.1 1.7-2.6 1.7-4.1z"/>
	</g>
</svg>